<svg xmlns="http://www.w3.org/2000/svg" width="884.595" height="628.601" viewBox="0 0 884.595 628.601">
  <defs>
    <style>
      .cls-1 {
        fill: #e6e6e6;
      }

      .cls-2 {
        fill: #fff;
      }

      .cls-3 {
        fill: #3e4095;
      }

      .cls-4 {
        fill: #7f77ff;
      }

      .cls-5 {
        fill: #3f3d56;
      }

      .cls-6 {
        fill: #a0616a;
      }

      .cls-7 {
        fill: #2f2e41;
      }

      .cls-8 {
        fill: #cfcce0;
      }

      .cls-9 {
        fill: #6c63ff;
      }

      .cls-10 {
        opacity: 0.2;
      }
    </style>
  </defs>
  <g id="Group_1" data-name="Group 1" transform="translate(0)">
    <ellipse id="Ellipse_1" data-name="Ellipse 1" class="cls-1" cx="75.139" cy="9" rx="75.139" ry="9" transform="translate(0.038 610.601)"/>
    <rect id="Rectangle_1" data-name="Rectangle 1" class="cls-1" width="688.378" height="440.868" transform="translate(196.217 0.39)"/>
    <rect id="Rectangle_2" data-name="Rectangle 2" class="cls-2" width="649.01" height="359.49" transform="translate(215.901 55.686)"/>
    <path id="Path_84" data-name="Path 84" class="cls-3" d="M0,0H688.378V29.245H0Z" transform="translate(195.923)"/>
    <circle id="Ellipse_2" data-name="Ellipse 2" class="cls-2" cx="5.42" cy="5.42" r="5.42" transform="translate(212.235 9.531)"/>
    <circle id="Ellipse_3" data-name="Ellipse 3" class="cls-2" cx="5.42" cy="5.42" r="5.42" transform="translate(232.809 9.531)"/>
    <circle id="Ellipse_4" data-name="Ellipse 4" class="cls-2" cx="5.42" cy="5.42" r="5.42" transform="translate(253.383 9.531)"/>
    <path id="Path_1" data-name="Path 1" class="cls-4" d="M742.448,281.894a5.236,5.236,0,0,0-.192,1.234Z" transform="translate(-157.702 -135.7)"/>
    <path id="Path_2" data-name="Path 2" class="cls-4" d="M659.446,319.876c-.038-.9-.2-1.281-.346-1.327C659.205,319.388,659.3,320.077,659.446,319.876Z" transform="translate(-157.702 -135.7)"/>
    <path id="Path_3" data-name="Path 3" class="cls-4" d="M657.769,338.945c-.029.391-.059.753-.108,1.194a1.881,1.881,0,0,1,.108-1.194Z" transform="translate(-157.702 -135.7)"/>
    <path id="Path_4" data-name="Path 4" class="cls-4" d="M742.255,283.128l-.509,3.17C742.275,286.52,742.139,284.673,742.255,283.128Z" transform="translate(-157.702 -135.7)"/>
    <path id="Path_5" data-name="Path 5" class="cls-4" d="M770.88,253.589l.964,0a4.965,4.965,0,0,0,.8-.658Z" transform="translate(-157.702 -135.7)"/>
    <path id="Path_6" data-name="Path 6" class="cls-4" d="M808.65,255.256a1.141,1.141,0,0,1,.869-.942,6.217,6.217,0,0,0-.864-.974C808.189,253.281,808.681,254.656,808.65,255.256Z" transform="translate(-157.702 -135.7)"/>
    <path id="Path_7" data-name="Path 7" class="cls-4" d="M848.169,228.32c.126-.019.246-.038.342-.057Z" transform="translate(-157.702 -135.7)"/>
    <path id="Path_8" data-name="Path 8" class="cls-4" d="M847.381,228.452l.788-.132C847.908,228.36,847.611,228.4,847.381,228.452Z" transform="translate(-157.702 -135.7)"/>
    <path id="Path_9" data-name="Path 9" class="cls-4" d="M740.646,256.837a.458.458,0,0,0-.491.225C740.327,257.173,740.49,257.059,740.646,256.837Z" transform="translate(-157.702 -135.7)"/>
    <path id="Path_10" data-name="Path 10" class="cls-4" d="M896.326,229.863l.074.645a3.067,3.067,0,0,0,.77.14Z" transform="translate(-157.702 -135.7)"/>
    <path id="Path_11" data-name="Path 11" class="cls-4" d="M654.727,362.1c.01,0,.01.01-.01.029,0,.01-.01.02-.02.029s-.147.039-.254.059a.842.842,0,0,0-.166-.029c.147-.02.294-.049.411-.059C654.707,362.113,654.717,362.1,654.727,362.1Z" transform="translate(-157.702 -135.7)"/>
    <path id="Path_12" data-name="Path 12" class="cls-4" d="M544.573,513.614c-3.856-1.229,6.276-1.578.47-2.944C545.583,511.208,539.766,512.815,544.573,513.614Z" transform="translate(-157.702 -135.7)"/>
    <path id="Path_13" data-name="Path 13" class="cls-4" d="M575.4,379.852a2.41,2.41,0,0,1-.607.871C575.085,380.077,575.251,379.881,575.4,379.852Z" transform="translate(-157.702 -135.7)"/>
    <path id="Path_14" data-name="Path 14" class="cls-4" d="M632.488,364.97a9.635,9.635,0,0,1-1.575-.176Z" transform="translate(-157.702 -135.7)"/>
    <path id="Path_15" data-name="Path 15" class="cls-4" d="M554.966,384.709a4.267,4.267,0,0,0-1.626,0,1.625,1.625,0,0,0,.356.167A2.468,2.468,0,0,1,554.966,384.709Z" transform="translate(-157.702 -135.7)"/>
    <path id="Path_16" data-name="Path 16" class="cls-4" d="M554.966,384.709c.2.036.418.077.69.11A5.335,5.335,0,0,0,554.966,384.709Z" transform="translate(-157.702 -135.7)"/>
    <path id="Path_17" data-name="Path 17" class="cls-4" d="M521.259,384.828c.182.105.423.184.635.277l1.09-.074Z" transform="translate(-157.702 -135.7)"/>
    <path id="Path_18" data-name="Path 18" class="cls-4" d="M549.813,385.752a.137.137,0,0,1-.078.108C549.774,385.8,549.813,385.752,549.813,385.752Z" transform="translate(-157.702 -135.7)"/>
    <path id="Path_19" data-name="Path 19" class="cls-4" d="M890.712,511.618c-.222-.019-.442-.038-.685-.064C890.283,511.588,890.506,511.606,890.712,511.618Z" transform="translate(-157.702 -135.7)"/>
    <path id="Path_20" data-name="Path 20" class="cls-4" d="M899.985,480.048c-.008,0-.016.006-.024.006C899.969,480.091,899.977,480.08,899.985,480.048Z" transform="translate(-157.702 -135.7)"/>
    <path id="Path_21" data-name="Path 21" class="cls-4" d="M629.552,365.861a5.383,5.383,0,0,0,1.027-.3C631.294,365.743,630.315,365.734,629.552,365.861Z" transform="translate(-157.702 -135.7)"/>
    <path id="Path_22" data-name="Path 22" class="cls-4" d="M898.986,359.486c.053-.232.108-.493.173-.811C899.095,358.949,899.043,359.216,898.986,359.486Z" transform="translate(-157.702 -135.7)"/>
    <path id="Path_23" data-name="Path 23" class="cls-3" d="M900.755,463.691a2.065,2.065,0,0,1,.44-.626l.137.489a8.849,8.849,0,0,0-.2-3,29.141,29.141,0,0,0,.372-3.943c1.037-.558.558-5.6.616-8.023-1.37.2-1.154-2.925-2.26-.078.078-.166.127.665.186,2.152a6.6,6.6,0,0,0,.147,1.037c-.039-.049-.078-.108-.127-.166.029,1.595.059,3.679.1,6.047a9.891,9.891,0,0,1-.528-6.624c-.881-1.243-1.79-2.622-2.211-3.4,1.918-3.327,2.955-9.745,4.129-10.635-.763-7.426-.509-17.494-3.092-22.171-.333-2.113.744-2.426,1.154-3.219.254,1.223.215,2.671.587,3.336-.665-4.227-.254-12.514-2.064-13.521.812-5.323,1.663,2.994,1.37-4.325l.548.988c2.837-14.138-4.344-23.081-1.076-38.529-.127.577-.245.92-.46,1.076,1.634-18.179-1.536-37.473,1.057-55.417.518-5.1-.626-5.655-1.507-8.766l1.477-1.106-1.7-5.323c-1.252-7.543,3.62-13.062,1.262-22.621l-1,1.233c.2-3.434-.587-10.87.558-10.293a2.439,2.439,0,0,1-.509-2.466l.773-.108-1.331-8.434c.558-6.526,3.072,1.027,3.219-8.512-.294-3.542-2.25-10.087-2.769-8.757-.029,1.428-.479,3.649-1.252,3.757l-.4-3.238c-.147-.039-.284-.078-.43-.127v-.519h-1.4a2.353,2.353,0,0,0-1.839,0H857.657l.382-.382-1.154.382h-4.951c.147-.294.616-.538,1.595-.656-3.6-1.008-3.19.724-6.272-.4-.342-.176-.2-.274.127-.352l-3.522.607c.695-.43-.577-1.438,1.575-1.145-6.3-1.174-10.166,1.526-12.543-.02l.528-.117c-6.545.509-3.777,1.086-4.716,2.084h-4.09l-.822-.685-1.106-.92a7.792,7.792,0,0,0-1.223-.92,11.581,11.581,0,0,0-.9,1.487c-1.018-.049-3.111-.157-3.013-.763-1.79.519-1.419.675-.988.832.47.157,1.037.3.313.792a18.462,18.462,0,0,0-3.493-.479c-.127,2.172.029,4.8-.02,6.81-.049,2.094-.294,3.444-1.252,3.865,1.135,1.556.881-4.158,1.673.479-2.563,1.3.43,5.42-.744,9.285-1.321-1.115-.616-4.951-1.8-.959a3.483,3.483,0,0,1,.8,1.389,4.357,4.357,0,0,1,.039,1.595,14.7,14.7,0,0,1-.793,2.749,4.826,4.826,0,0,0-1.771-.108c.587.89-.724,1.076-2.691,1.115-1.184,0-2.544.01-3.933.01-1.458.02-2.955.059-4.364.205.352-.6-10.576-.969-15.8-1.614l.147-.3c-1.008,1.8-6.4,1.458-10.332,1.83.157-1.076.861-1.5,2.994-1.976l-3.7.01c-.871.577-2.016.881-4.413,1.086l.93-1.35c-2.456.039-4.931.44-7.583.714-1.331.137-2.691.235-4.129.254-.714.01-1.448-.01-2.2-.049-.372-.02-.753-.049-1.135-.088l-1.292-.147c-.137.313.342.695.646,1.086a8.806,8.806,0,0,1,1.018,1.233.853.853,0,0,1,.088.841h-3.424c.01-.372.235-.7.959-.881a7.386,7.386,0,0,1-3.1.205c.783-.372,1.693-.753,2.72-1.135-3.718-.5-1.526.949-4.139.841-.538-.959-2.5-.685-2.72-1.448.734-.1,2.847.391,3.786.02-1.947-.1-4.246-.323-6.36-.636a8.326,8.326,0,0,1-.841,2.7c.548.049,1.3.969,1.419,3.483.039,3.219-.254,3.737-.616,3.943-.176.1-.372.108-.558.362a2.286,2.286,0,0,0-.264.558,3.928,3.928,0,0,0-.215.812c.665,1.194-.029,4.325,1.419,4.413-.01,1.438-.685,1.7-1.076,2.26.636,2.544.186,11.878,1.722,9.011l.1-.656c.029.127.039.264.068.421a39.863,39.863,0,0,1,.47,7.641c-.059,2.133-.264,4.158-.46,5.939-1.438-.127-2.769-.235-4.011-.294-.626-.02-1.233-.039-1.839-.02l-1.174.029c-.411.029-.832.049-1.243.069l.02-.479c-4.941.548-11,.323-14.519,1.37-1.458-.01-3.444-.89-2.818-1.458-3.777.362-4.2.9-9.647.108,3.786-.841-1.311-.753,3.884-.616-4.9-.421-6.017-1.194-11.281.127,1.79-1.243-3.689-1.556-6.017-1.194l3.434.89a61.232,61.232,0,0,1-7.24-.039l1.252-1.624c-5.009-.988-9.539-.147-13.766.528a39.937,39.937,0,0,1-6.135.636l-.744-.01-.949-.049c-.734-.039-1.477-.1-2.231-.186a45.253,45.253,0,0,1-4.9-.861c-1.761.567.587.763,2.749.988,2.221.225,4.237.479,2.71,1.145a78.222,78.222,0,0,1-9.637-1.243,37.741,37.741,0,0,0-1.321,6.526c-.117,1.282-.157,2.446-.157,3.473,0,.509.01,1,.039,1.448.01.205.02.509.039.607.02.117.039.245.059.362a10.966,10.966,0,0,0,.793,2.456,11.433,11.433,0,0,1,.988,6.369c.577-.851,2.133-1.644,2.671,3.3-.117,2.74-.959,4.236-1.712,4.373-.421.088-.812-.254-1.037-1.018a3.128,3.128,0,0,1-.147-.6c-.049-1.106.137-1.634.333-1.595-.215-1.487-.46-3.444-1.086-1.614l.577.6a18.17,18.17,0,0,0-.372,2.544c-.264,2.632-.421,5.694-1.115,4.608.479,2.984.841,1.957,1.125-.029-.616,5.283.068,8.571-.46,14.294.323-.969,1.008-1.869,1-.9-.724,8.943,1.106,3.943,1.36,10-.89,3.444-2.113-1.233-1.38,4.863-.6,3.728-1.536.793-2.006-.685a21.708,21.708,0,0,1,.02,7.671c-.029.166-.049.333-.078.489-.02.117-.039.245-.059.362l-.039.205c-.01.059-.02.049-.029.068l-.078.1a1.782,1.782,0,0,1-.293.264,2.923,2.923,0,0,0-.391.274,1.991,1.991,0,0,0-.352-.421.649.649,0,0,1,.157.5,3.627,3.627,0,0,0,.372.215,3.757,3.757,0,0,0,.792.3c-.2.284-.206.567-.587.215a.644.644,0,0,1-.117-.108,6.969,6.969,0,0,0,1.213,1.38c.509.519,1.115,1.076.538,1.595a6.1,6.1,0,0,0-2.456-.1c-.206.01-.411.01-.607,0a7.813,7.813,0,0,1-.92-.108,1.638,1.638,0,0,1-1.233-.7c.91.068,1.565.088,2.055.078.264,0,.362-.039.44-.108.137-.117.039-.342-.049-.577-.166-.4-.225-.851.068-1.076a.578.578,0,0,1-.137.02.835.835,0,0,1-.254-.049c-.372-.029-.753-.069-1.154-.108-.254-.176.245-.323.714-.411-.528-.108-1-.186-1.409-.245a6.876,6.876,0,0,0-2.456,0c-1.781.421-1.4,1.976-6.448,1.947.9-.861-1.663-1.644-2.828-1.458,2.886.02,1.38,1.448-1.262,2.113-4.589-.675-4.98.5-7.387.421l2.74.323c-.93.871-3.219.753-6.409,1.027-.088-.215.156-.333.509-.421-3.3.509-7.25-1.761-11.584-.92a.572.572,0,0,0-.127.02c-2.289-.587-.225-1.624-2.241-2.025-5.538,1.125-6-1.194-11.829-.264,1.683,1.174,1.976.89-2.133,2.025l9.588-.822-6.154,1.693c2.9.02,6.105-.734,7.837-.528-2.935.949-2.632.656-1.243,1.624-3.963-1.751-7.847,1.027-12.416-.157l.137-2.9a27.206,27.206,0,0,0-8.776.039l-1.115.147-.558.069-.147.02-.225.02-.46.039c-1.2.088-2.426.186-3.689.284-2.475.166-5,.284-7.886.264-.01,1.292-.049,2.632-.117,4.031l.46-3.689.362.039a.4.4,0,0,1-.176.147,18.356,18.356,0,0,1,.411,5.538c0,.166-.01.342-.01.519v.01c-.02.92-.049,1.879-.059,2.837q0,.851.029,1.673c.01.274.029.538.039.8l.029.382.039.264c-.969-.274-1.321,1.536-1.918,2.769.176-.039.264.352.323.969.059.254.088.567.157.939a5.173,5.173,0,0,0,1.379,2.7,2.421,2.421,0,0,1-.5.382,17.134,17.134,0,0,1-1.761-.773,2.825,2.825,0,0,0-1.781.205c-.127.059-.254.127-.382.2a.984.984,0,0,1-.323.108c-.137.039-.274.078-.4.117-.538.166-1.047.342-1.546.519a17.2,17.2,0,0,1-7.475,1.282c2.084-1.047-1.066-1.732,3.581-2.485-2.319-.01-4.393-.186-4.432.479a1.99,1.99,0,0,0-.792-.117c-1.164.01-3.033.46-4.745.665a8.038,8.038,0,0,1-2.475,0,2.088,2.088,0,0,1-.528-.157,2.971,2.971,0,0,0-.3.157,4.677,4.677,0,0,1-3.59,1.194.25.25,0,0,1-.068-.372c-.518.4-3.816.626-1.712,1.614-3.082-1.3-7.221-1.438-11.437-1.38-5.528.069-11.173.479-14.7-.988-2.524.157-5.3.323-8.033.45-1.36.049-2.71.108-4,.157l-1.888.059c-.685.01-1.34.029-1.967.039.2-.147.2-.264.3-.333a1.23,1.23,0,0,1,.753-.049c-.176-.02-.294-.049-.509-.059s-.431-.029-.636-.049c-.411-.02-.793-.029-1.145-.039a15.307,15.307,0,0,0-1.8.1,5.387,5.387,0,0,0-2.084.646,5.779,5.779,0,0,1-3.542,1.331,17.044,17.044,0,0,1-.157,3.15c-.391.851-.636,1.047-.8.763a5.765,5.765,0,0,1-.284-1.8c-.088-1.556-.059-3.317-.352-2.006-1.585-.7-1.477,3.033-1.2,7.123.137,2.378.313,3.415.342,4.912a10.8,10.8,0,0,1-.558,4.021l-.186-1.174c-1.086,3.7,1.2,9.031.978,15.077,0,0-.284-.294-.479-.039,1.614,4.139,2.152,11.966,2.6,17.777-1.243-1.81-.656-2.642-1.918-1.536.176,2.612,2.025-.763,2.378,4.442-.675,1.693-1.272,5.45-2.622,5.949L495,439.1c-1.742,2.514.069,6.35-.235,8.943l-.763-.333c.245,7.524,2.162,7.632,2.025,15.713l.577-.832c1.908,4.422-1.066,3.708.352,8.111l-1.937,1.34c.47,2.916,1.869,10.2,2.231,15.439-1.428-2.965-2.162-9.08-3.013-12.866-.01,2.886.147,9.823,1.1,11.33-.186-1.164-.656-2.632-.362-3.786,1.517,3.542,2.26,8.209,2.231,13.972-1.223-.333-1.751,1.155-2.006,3.464-.01.147-.029.294-.039.45-.01.215-.029.44-.039.665-.02.46-.039.93-.068,1.419-.02.978-.049,2.016-.078,3.072-.049,2.162-.1,4.432-.147,6.634,4.471.147,8.581.47,10.968,1.477l.8-.068.5-.059.959-.1q.954-.088,1.908-.147c1.272-.088,2.544-.117,3.826-.127,2.554-.01,5.137.1,7.768.245,5.264.294,10.733.734,16.672.616-4.207-2.906,3.464-.078,2.74-3.072,2.74-.186,3.8-.137,4.051.049l-.4-.088c.147.039.264.069.421.108v-.01l8.375,1.781c1.986.871-2.632.656-2.378,1.331,6.056.235,2.544,1.272,6.545,2.064-.822-1.066,2.1-1.536,5.557-1.125l-4.862-1.379c8.463-1.595,7.318,2.515,15.84.929l-2.7.949c4.383-.558,16.144.02,20.439-2.387.773.342,1.8,1.164-.127,1.38,10.459.362,23.276-2.554,31.407-1.076l-.792.734c1.947-.215,3.4-1.38,5.841-.646-.127.3-.792.734.117.773,1.027-.245,5.176-1.282,7.768-.851l-2.211.822c6.418.607,10.958-.342,15.576-1.262a61.387,61.387,0,0,1,8.63-1.243c-.02,2.153,8,2.857,12.015,3.2l-.147.3a106.337,106.337,0,0,0,14.255-.695c3.63-.4,7.152-.91,10.88-1.331h.01l.714-.088c.861-.1,1.742-.186,2.632-.274l.841-.088,1.849-.147a38.24,38.24,0,0,0,9.549,1.35c7.651.372,17.279.068,24.558.939-1.683-.391.274-1.683,2.221-1.9,2.417.411,6.565-1.262,6.731.156a.95.95,0,0,1-.02.323l-.871-.039h-.049l.01.01c1.947,1.927,7.23,1.419,11.359,1.468l.675-2.583c10.811,3.757,28.325-1.38,34.224,1.986,2.612-.646,5.841-.636,8.424-1.282l-.137,1.38a184.9,184.9,0,0,0,19.764.2l-1.82,1c5.039.088,6.36-4,11.017-4.08l1.389,2.064c8.8-.029,17.69,1.79,26.378-.088-.137.3-.4.9-1.82.988,4,.049,15.234,1.311,14.607-1.174.959,1.4,9.216-.127,13.707-.9l-.734,1.36c2.006-.871,3.033-1.428,4.266-1.82a14.251,14.251,0,0,1,2.143-.5c.45-.068.881-.137,1.5-.2.744-.059,1.585-.117,2.534-.186,1.683.166,1.967.92-.01.812a12.659,12.659,0,0,0,4.413-.2,12.719,12.719,0,0,1,3.757-.6,25.065,25.065,0,0,1,.157-2.945c.293,1.135.587,2.338.871,3.61a33.187,33.187,0,0,0-.264-6.272c-.235-1.252-.607-2.182-1.106-3.914-.039-.235-.068-.489-.088-.753-.02-.245-.039-.489-.059-.753-.02-.43-.029-.9-.02-1.37a22.14,22.14,0,0,1,.284-2.906c.3-1.888.841-3.493,1.458-3.826-.753-.616-1.761-3.1-1.409-5.782.47-.362.763.607.9,1.106.929-7.6-1.585-11.31-.245-16.535a1.149,1.149,0,0,0,.812-.881c-.029,5.538-.1,10.078-.186,10.44,1.243-.069,1.468-4.853,3.19-1C902.223,475.138,900.168,468.446,900.755,463.691Zm1.106-10.126c.2,1.624-.078,2.162-.362,2.387-.02-.763-.068-1.663-.166-2.837-.049-.039-.108-.137-.166-.186a1.863,1.863,0,0,1,.7.636Zm-56-223.917a2.154,2.154,0,0,1,.47.215h-2.074c.5-.078,1.028-.147,1.6-.215Z" transform="translate(-157.702 -135.7)"/>
    <path id="Path_24" data-name="Path 24" class="cls-4" d="M655.353,362.622a.363.363,0,0,1-.245.117A.813.813,0,0,1,655.353,362.622Z" transform="translate(-157.702 -135.7)"/>
    <path id="Path_25" data-name="Path 25" class="cls-4" d="M629.328,365.9c.076-.012.151-.03.226-.045C629.476,365.872,629.4,365.887,629.328,365.9Z" transform="translate(-157.702 -135.7)"/>
    <path id="Path_26" data-name="Path 26" class="cls-4" d="M900.053,450.659a5.232,5.232,0,0,1-.1-.667c-.122.331-.225.645-.309.965l.431.573Z" transform="translate(-157.702 -135.7)"/>
    <path id="Path_27" data-name="Path 27" class="cls-4" d="M742.448,281.894a1.386,1.386,0,0,1,.2-.452c-.067.144-.11.144-.164.237Z" transform="translate(-157.702 -135.7)"/>
    <path id="Path_28" data-name="Path 28" class="cls-4" d="M810.827,228.214c.442.011.941.648.846,5.329l.294-5.752,2.161.1c-1.744-.531-4.625-1.246-.638-1.373l-3.161-.369C810,228.912,810.386,228.226,810.827,228.214Z" transform="translate(-157.702 -135.7)"/>
    <path id="Path_29" data-name="Path 29" class="cls-4" d="M810.9,252.156c-.124-1.1-.316-1.127-.516-1s-.406.419-.555.283C810.315,252.739,810.437,253.369,810.9,252.156Z" transform="translate(-157.702 -135.7)"/>
    <path id="Path_30" data-name="Path 30" class="cls-4" d="M715.647,293.751l.341-1.251C713.377,292.68,715.963,292.985,715.647,293.751Z" transform="translate(-157.702 -135.7)"/>
    <path id="Path_31" data-name="Path 31" class="cls-4" d="M512.774,155.795l.217-.017.4-.035,1.607-.137,1.14-.179-2.177.227-1.089.113-1.778.114,1.341-.069Z"/>
    <path id="Path_32" data-name="Path 32" class="cls-4" d="M527.378,383.612l.789,1.541C529.931,384.877,530.3,383.145,527.378,383.612Z" transform="translate(-157.702 -135.7)"/>
    <path id="Path_33" data-name="Path 33" class="cls-4" d="M495.166,462.512a7.347,7.347,0,0,0-.509,5.77C494.764,465.981,495.365,463.685,495.166,462.512Z" transform="translate(-157.702 -135.7)"/>
    <path id="Path_34" data-name="Path 34" class="cls-4" d="M600.654,378.825l3.881-.43-1.822-.086Z"/>
    <path id="Path_35" data-name="Path 35" class="cls-2" d="M777.389,388.227a148.537,148.537,0,0,1-4.941,35.144c-11.858,43.832-44.3,75.728-61.786,90.316a38.243,38.243,0,0,1-9.549-1.35l-1.849.147-.841.088c-.89.088-1.771.176-2.632.274l-.714.088h-.01a222.092,222.092,0,0,1-12.1-45.8l-.01-.01v-.01c-3.023-20.077-3.513-43.637,2.857-67.177a146.414,146.414,0,0,1,11.261-28.775c22.738-44.126,62.06-70.415,62.06-70.415S778.563,340.657,777.389,388.227Z" transform="translate(-157.702 -135.7)"/>
    <path id="Path_36" data-name="Path 36" class="cls-2" d="M657.769,338.945c-.029.391-.059.753-.108,1.194a1.881,1.881,0,0,1,.108-1.194Z" transform="translate(-157.702 -135.7)"/>
    <path id="Path_37" data-name="Path 37" class="cls-2" d="M629.552,365.861a5.383,5.383,0,0,0,1.027-.3C631.294,365.743,630.315,365.734,629.552,365.861Z" transform="translate(-157.702 -135.7)"/>
    <path id="Path_38" data-name="Path 38" class="cls-2" d="M630.912,364.794l1.575.176A9.636,9.636,0,0,1,630.912,364.794Z" transform="translate(-157.702 -135.7)"/>
    <path id="Path_39" data-name="Path 39" class="cls-2" d="M654.443,362.221a.837.837,0,0,0-.166-.029c.147-.02.294-.049.411-.059.02-.02.029-.029.039-.029s.01.01-.01.029c0,.01-.01.02-.02.029S654.55,362.2,654.443,362.221Z" transform="translate(-157.702 -135.7)"/>
    <path id="Path_40" data-name="Path 40" class="cls-2" d="M655.353,362.622a.363.363,0,0,1-.245.117A.813.813,0,0,1,655.353,362.622Z" transform="translate(-157.702 -135.7)"/>
    <path id="Path_41" data-name="Path 41" class="cls-2" d="M711.219,467.057c0,.02-.01.039-.01.059a221.783,221.783,0,0,1-11.946,45.368l-.841.088c-.89.088-1.771.176-2.632.274l-.714.088h-.01c-3.728.421-7.25.93-10.88,1.331-17.308-14.314-50.456-46.474-62.461-90.893a148,148,0,0,1-4.951-35.154,180.08,180.08,0,0,1,.969-23.237c4.334-.841,8.287,1.429,11.584.92-.352.088-.6.205-.509.421,3.19-.274,5.479-.157,6.409-1.027l-2.74-.323c2.407.078,2.8-1.1,7.387-.421,2.642-.665,4.148-2.094,1.262-2.113,1.164-.186,3.728.6,2.828,1.458,5.049.029,4.667-1.526,6.448-1.947h2.456c.411.059.88.137,1.409.245-.47.088-.969.235-.714.411.4.039.783.078,1.154.108a.835.835,0,0,0,.254.049.575.575,0,0,0,.137-.02c-.294.225-.235.675-.068,1.076.088.235.186.46.049.577-.078.068-.176.108-.44.108-.489.01-1.145-.01-2.055-.078a1.638,1.638,0,0,0,1.233.7,7.811,7.811,0,0,0,.92.108c.2.01.4.01.607,0a6.1,6.1,0,0,1,2.456.1c.577-.519-.029-1.076-.538-1.595a6.971,6.971,0,0,1-1.213-1.38.64.64,0,0,0,.117.108c.382.352.391.069.587-.215a3.759,3.759,0,0,1-.792-.3h.714v-1.565c.029-.157.049-.323.078-.489a21.709,21.709,0,0,0-.02-7.671c.47,1.477,1.409,4.413,2.006.685-.734-6.1.489-1.419,1.38-4.863-.254-6.056-2.084-1.057-1.36-10,.01-.969-.675-.068-1,.9.528-5.724-.156-9.011.46-14.294-.284,1.986-.646,3.013-1.125.029.695,1.086.851-1.976,1.115-4.608l.695.665c.342.333.695.675,1.037,1.018,12.191,11.966,26.485,28.716,37.12,49.409a.01.01,0,0,1,.007,0,.009.009,0,0,1,0,.007,145.514,145.514,0,0,1,11.271,28.765C714.712,423.459,714.233,446.98,711.219,467.057Z" transform="translate(-157.702 -135.7)"/>
    <path id="Path_42" data-name="Path 42" class="cls-5" d="M575.4,379.852a2.41,2.41,0,0,1-.607.871C575.085,380.077,575.251,379.881,575.4,379.852Z" transform="translate(-157.702 -135.7)"/>
    <path id="Path_43" data-name="Path 43" class="cls-5" d="M549.813,385.752a.137.137,0,0,1-.078.108C549.774,385.8,549.813,385.752,549.813,385.752Z" transform="translate(-157.702 -135.7)"/>
    <path id="Path_44" data-name="Path 44" class="cls-5" d="M695.79,512.846l-.714.088h-.01c-3.728.421-7.25.93-10.88,1.331a106.316,106.316,0,0,1-14.255.695l.147-.3c-4.011-.342-12.034-1.047-12.015-3.2a61.384,61.384,0,0,0-8.629,1.243c-21.163-6.888-45.809-18.551-65.974-38.177-28.423-27.659-41.249-64.613-46.875-88.428,4.217-.059,8.356.078,11.438,1.38-2.1-.988,1.194-1.213,1.712-1.614a.25.25,0,0,0,.068.372,4.677,4.677,0,0,0,3.591-1.194h8.052v-.665a1.991,1.991,0,0,1,.792.117c.039-.665,2.113-.489,4.432-.479-4.647.753-1.5,1.438-3.581,2.485a17.2,17.2,0,0,0,7.475-1.282c.5-.176,1.008-.352,1.546-.519.127-.039.264-.078.4-.117a.983.983,0,0,0,.323-.108c.127-.069.254-.137.382-.2a2.825,2.825,0,0,1,1.781-.205,17.142,17.142,0,0,0,1.761.773,2.42,2.42,0,0,0,.5-.382,5.173,5.173,0,0,1-1.38-2.7c-.068-.372-.1-.685-.157-.939-.059-.616-.147-1.008-.323-.969.6-1.233.949-3.043,1.918-2.769l-.039-.264-.029-.382c-.01-.264-.029-.528-.039-.8q-.029-.822-.029-1.673c.01-.959.039-1.918.059-2.837a192.81,192.81,0,0,1,39.537,17.093A148.667,148.667,0,0,1,646.058,410.2c17.65,17.181,29.284,37.942,36.9,56.914v.01l.01.01a221.652,221.652,0,0,1,12.827,45.711Z" transform="translate(-157.702 -135.7)"/>
    <path id="Path_45" data-name="Path 45" class="cls-5" d="M743.233,513.169h.049a.074.074,0,0,1-.039.01Z" transform="translate(-157.702 -135.7)"/>
    <path id="Path_46" data-name="Path 46" class="cls-5" d="M861.727,362.231s-5.557,68.038-51.014,112.291c-20.351,19.813-45.251,31.5-66.541,38.363-.166-1.419-4.315.254-6.731-.156-1.947.215-3.9,1.507-2.221,1.9-7.279-.871-16.907-.568-24.558-.939a38.24,38.24,0,0,1-9.549-1.35l-1.849.147-.841.088a222.347,222.347,0,0,1,12.8-45.515c7.631-18.952,19.265-39.694,36.886-56.845a148.473,148.473,0,0,1,29.284-21.985C818.11,364.608,861.727,362.231,861.727,362.231Z" transform="translate(-157.702 -135.7)"/>
    <path id="Path_47" data-name="Path 47" class="cls-6" d="M222.123,322.964s-13.627,27.255-34.688,33.449,50.793,0,50.793,0-3.717-19.822,1.239-22.3S222.123,322.964,222.123,322.964Z" transform="translate(-157.702 -135.7)"/>
    <path id="Path_48" data-name="Path 48" class="cls-7" d="M200.1,276.14c-.741-6.458,2.791-12.167,7.889-12.752.058-.007.115,0,.172-.009a7.443,7.443,0,0,0-1.924-.031c-5.1.585-8.63,6.294-7.889,12.752.733,6.384,5.369,11.1,10.4,10.642C204.438,286.115,200.751,281.774,200.1,276.14Z" transform="translate(-157.702 -135.7)"/>
    <path id="Path_49" data-name="Path 49" class="cls-7" d="M204.674,284.9c-6.157-2.085-9.813-7.715-8.167-12.575.019-.055.046-.105.066-.16a7.443,7.443,0,0,0-.849,1.727c-1.646,4.86,2.011,10.491,8.167,12.575,6.087,2.061,12.33-.12,14.062-4.866C215.544,285.232,210.046,286.715,204.674,284.9Z" transform="translate(-157.702 -135.7)"/>
    <path id="Path_50" data-name="Path 50" class="cls-6" d="M162.076,404.288,163.9,456.76l28.494,66.9s-7.433,34.688,7.433,33.449,1.239-34.688,1.239-34.688L187.435,451.8l-2.478-58.226Z" transform="translate(-157.702 -135.7)"/>
    <circle id="Ellipse_5" data-name="Ellipse 5" class="cls-6" cx="27.255" cy="27.255" r="27.255" transform="translate(56.987 151.337)"/>
    <path id="Path_51" data-name="Path 51" class="cls-8" d="M264.244,361.368l-26.859-10.73s-5.351.82-20.217,2.058-21.467.07-21.467.07-31.8,11.079-30.565,17.274S180,474.1,186.2,469.148s9.911-6.194,9.911-6.194l68.137-6.194Z" transform="translate(-157.702 -135.7)"/>
    <path id="Path_52" data-name="Path 52" class="cls-8" d="M170.091,367.562h-4.032s-4.64,2.478-4.64,9.911-3.717,29.732-3.717,29.732h19.822Z" transform="translate(-157.702 -135.7)"/>
    <path id="Path_53" data-name="Path 53" class="cls-7" d="M206.637,379.331,191.674,355.16a3.382,3.382,0,0,0-3.295-1.576l-3.9.488a3.381,3.381,0,0,0-2.846,4.235l7.662,28.458s12.114,50.272.482,77.168l-.482,12.029s-11.15,37.166-8.672,65.659,3.717,53.271,3.717,53.271-6.194,18.583-3.717,24.777c.743,1.858.595,4.609.022,7.548-3.494,17.944-4.4,36.3-3.9,54.571l.163,6.018s-8.672,7.433-1.239,8.672,30.971,3.717,30.971,3.717,4.955-8.672,2.478-9.911l7.433-40.882s12.389-17.344,11.15-28.494c0,0,3.717-18.583,0-27.255l1.239-54.509,4.955,65.659-7.433,81.764s-9.911,7.433-3.717,9.911,44.6,14.866,44.6,8.672-2.478-8.672-2.478-8.672l16.105-167.245L272.3,459.857s-58.226-4.955-53.271-70.615c0,0,14.245-29.586,28.307-35.169a.809.809,0,0,0-.058-1.536l-5.709-1.631a.784.784,0,0,0-.475.009C238.613,351.754,217.134,359.5,206.637,379.331Z" transform="translate(-157.702 -135.7)"/>
    <path id="Path_54" data-name="Path 54" class="cls-7" d="M235.131,695.238l-.2,1.781A82,82,0,0,1,224.1,729.153c-2.774,4.768-4.9,10.153-3.836,14.4,2.478,9.911,1.239,13.627,1.239,13.627h19.822v-3.717l11.067,3.018a12.258,12.258,0,0,0,7.516-.231c2.478-.929,4.955-2.787,4.955-6.5,0-3.1-2.366-5.979-5.126-8.288A36.8,36.8,0,0,1,247.658,723l-.139-.509,7.433-27.255Z" transform="translate(-157.702 -135.7)"/>
    <path id="Path_55" data-name="Path 55" class="cls-7" d="M183.718,695.858l-.2,1.781a82,82,0,0,1-10.833,32.134c-2.774,4.768-4.9,10.153-3.836,14.4,2.478,9.911,1.239,13.627,1.239,13.627h19.822v-3.717l11.067,3.018a12.259,12.259,0,0,0,7.516-.231c2.478-.929,4.955-2.787,4.955-6.5,0-3.1-2.366-5.979-5.126-8.288a36.8,36.8,0,0,1-12.079-18.458l-.139-.509,7.433-27.255Z" transform="translate(-157.702 -135.7)"/>
    <path id="Path_56" data-name="Path 56" class="cls-7" d="M247.446,318.89s19.524-11.279,27.084-11.963c0,0,2.2-4.956-.172-9.725,0,0-1.152-15.3-20.249-14.7,0,0-22.556-12.219-30.128-7.23s-24.432,28.926-17.311,43.232c0,0-8.233,4.142-8.625,1.912s-6.508,3.76,1.567,8.919c0,0-11.3,11.442-.316,18.6,0,0-.5-10.148,5.871-13.216s.8.155.8.155-10.911,13.672,5.385,18.994c0,0-6.081-6.925.035-12.915,0,0-1.895,13.989,9.373,15.462,0,0-5.812-8.309-2.754-11.3,0,0,1.3,10.3,7.66,11.539l4.771.928,1.614-8.3s-4.537,10.6,6.069,11.23c0,0-5.128-16.072,1.661-25.52S247.446,318.89,247.446,318.89Z" transform="translate(-157.702 -135.7)"/>
    <ellipse id="Ellipse_6" data-name="Ellipse 6" class="cls-7" cx="11.769" cy="9.291" rx="11.769" ry="9.291" transform="matrix(0.604, -0.797, 0.797, 0.604, 37.52, 146.437)"/>
    <path id="Path_57" data-name="Path 57" class="cls-9" d="M219.849,277.771a13.757,13.757,0,0,0-6.179,4.674,14.013,14.013,0,0,0-2.708,6.2,13.757,13.757,0,0,0,6.179-4.674A14.013,14.013,0,0,0,219.849,277.771Z" transform="translate(-157.702 -135.7)"/>
    <path id="Path_58" data-name="Path 58" class="cls-8" d="M314.436,513.762l-1.574-2.1,11.423-8.56a9.652,9.652,0,0,0,3.782-8.889l-5.659-45.7A19.02,19.02,0,0,1,329.862,431l12.45-9.33a11.136,11.136,0,0,1,15.572,2.231l2.883,3.848-2.1,1.574-2.884-3.848a8.509,8.509,0,0,0-11.9-1.7l-12.45,9.33a16.39,16.39,0,0,0-6.423,15.1l5.658,45.7a12.28,12.28,0,0,1-4.812,11.311Z" transform="translate(-157.702 -135.7)"/>
    <path id="Path_59" data-name="Path 59" class="cls-8" d="M160.807,381.935l9.313-12.265-3.148-4.2-13.963,6.058L92.055,413.648l10.79,14.4Z"/>
    <rect id="Rectangle_4" data-name="Rectangle 4" class="cls-1" width="29.24" height="105.525" rx="7.272" transform="translate(187.131 298.606) rotate(-36.846)"/>
    <path id="Path_60" data-name="Path 60" class="cls-10" d="M427.152,495.4l-1.686-2.25-.337-.45a7.271,7.271,0,0,1-1.458,10.178l-11.762,8.814a7.271,7.271,0,0,1-10.178-1.458l.337.45,1.686,2.25a7.271,7.271,0,0,0,10.178,1.458l11.762-8.814a7.271,7.271,0,0,0,1.459-10.178Z" transform="translate(-157.702 -135.7)"/>
    <path id="Path_61" data-name="Path 61" class="cls-4" d="M392.263,447.331c-.1-.1-.188-.181-.191-.137C392.169,447.311,392.234,447.342,392.263,447.331Z" transform="translate(-157.702 -135.7)"/>
    <path id="Path_62" data-name="Path 62" class="cls-4" d="M390.413,444.41a.271.271,0,0,0-.1-.175Z" transform="translate(-157.702 -135.7)"/>
    <path id="Path_63" data-name="Path 63" class="cls-4" d="M403.716,462.861c-.109.035.1.268.238.491Z" transform="translate(-157.702 -135.7)"/>
    <path id="Path_64" data-name="Path 64" class="cls-4" d="M409.47,470.267l.1.13a.9.9,0,0,0,.189.028Z" transform="translate(-157.702 -135.7)"/>
    <path id="Path_65" data-name="Path 65" class="cls-4" d="M413.107,475.689a.491.491,0,0,1,.355.152.354.354,0,0,0,.118-.174C413.5,475.536,413.241,475.662,413.107,475.689Z" transform="translate(-157.702 -135.7)"/>
    <path id="Path_66" data-name="Path 66" class="cls-4" d="M424.388,491.361l-.055.1a.74.74,0,0,0,.112.113Z" transform="translate(-157.702 -135.7)"/>
    <path id="Path_67" data-name="Path 67" class="cls-4" d="M386.84,439l.012.025C386.977,439.142,386.917,439.07,386.84,439Z" transform="translate(-157.702 -135.7)"/>
    <path id="Path_68" data-name="Path 68" class="cls-4" d="M353.808,449.782c-.19-.672.894.655.529-.3C354.3,449.624,353.452,449.034,353.808,449.782Z" transform="translate(-157.702 -135.7)"/>
    <path id="Path_69" data-name="Path 69" class="cls-4" d="M378.046,427.549a.413.413,0,0,0-.01.192C378.056,427.72,378.064,427.672,378.046,427.549Z" transform="translate(-157.702 -135.7)"/>
    <path id="Path_70" data-name="Path 70" class="cls-4" d="M373.433,424.236a1.6,1.6,0,0,0-.414.373.283.283,0,0,0,.076-.026A.916.916,0,0,1,373.433,424.236Z" transform="translate(-157.702 -135.7)"/>
    <path id="Path_71" data-name="Path 71" class="cls-4" d="M368.854,428.547a1.07,1.07,0,0,0,.117-.029l.127-.133Z" transform="translate(-157.702 -135.7)"/>
    <path id="Path_72" data-name="Path 72" class="cls-3" d="M424.659,491.59c-.155.188-.459.432-.6.351l.27-.484c-.019-.023-.037-.048-.055-.072l.052-.067-3.884-5.183.1.006-.179-.109-.492-.657c.063-.014.143.006.26.122-.2-.61-.441-.342-.571-.9-.006-.068.026-.059.071-.026l-.456-.4c.14.041.176-.255.347.073-.447-1-1.281-1.189-1.269-1.7l.074.056c-.747-.822-.562-.377-.819-.381l-.415-.553.106-.719-.331.067c-.083-.129-.245-.384-.114-.413-.508-.329-.048.157-.4.012-.218-.755-1.319-1.543-1.029-1.967-.344-.072.278.67-.321.139.285-.493-.615-.672-.826-1.353.34,0,.607.6.4-.084-.608-.05-.7-1.106-1.113-1.507-.307.2-.859-.894-1.526-1.582a21.04,21.04,0,0,0-1.337-2.336l.064-.016c-.4.083-.888-.688-1.346-1.173.191-.111.332-.067.627.161l-.375-.5a1.351,1.351,0,0,1-.625-.464l.314-.039a11.938,11.938,0,0,1-1.756-2.11c-.164.072-.14.545-.358.6l-.339-.453a.255.255,0,0,1,.294.071c-.073-.067-.3-.207-.369-.4l.457.221c-.21-.451-.308-.087-.524-.411.163-.112-.06-.315.1-.364.075.068.138.32.29.393a2.609,2.609,0,0,1-.445-1.1c-.067.1-.213.159-.426-.082-.51-.656.02-.37-.19-.818-.23-.079-.434-.588-.679-.422-.145-.2-.061-.314-.054-.437-.362-.266-1.234-1.584-1.194-1.008l.049.1-.052-.048c-1.08-.951-1.621-2.442-2.561-3.485l.081-.058a16.079,16.079,0,0,0-1.694-1.8c-.148-.2-.205-.574-.048-.56a3.665,3.665,0,0,1-1-1.292c.522.41-.011-.268.5.45-.429-.714-.415-.959-1.164-1.51.384.091-.119-.69-.416-.96l.2.573a8.514,8.514,0,0,1-.728-.984l.394-.029c-.693-1.6-2.385-2.035-2.617-3.474-.455-.219.421.835-.037.678a11.151,11.151,0,0,1-.683-1.784c-.493-.966-.987-.506-1.557-1.477-.009.185-.182.484-.772-.118-.433-.651-.177-1.066.195-.729.12.144.144.239.107.256.186.176.425.41.343.086l-.156-.01c-.135-.383-.79-1.234-.483-1.149-.444-.4-.307-.085-.094.3-.463-.9-.934-1.255-1.46-2.149.046.17.025.375-.072.243-.789-1.3-.579-.4-1.235-1.186-.2-.574.471-.092-.269-.826-.28-.577.172-.3.4-.153a5.777,5.777,0,0,1-1.22-1.949l.373.339a3.833,3.833,0,0,1-.514-.6l-.021.368c-.141-.257-.288-.455-.206-.51-.3-.146-.178.42-.7.072-.136-.382-.811-.866-.639-1.162.645,1.039.172-.3.831.5a2.274,2.274,0,0,1-.435-.59c0-.056.077-.006.139.047-.474-1.1-.606-.215-1.325-1.186.234.016.1-.426-.047-.561.289.392-.1.364-.474.088-.354-.7-.587-.612-.818-.946l.226.409c-.236-.019-.45-.343-.818-.742.083-.12.37.335.3.145-.609-.293-.554-1.278-1.224-1.821-.136-.382.244-.23.106-.551-.746-.612-.414-.958-1.157-1.632-.021.37.056.375-.546-.041l1.105,1.2-.9-.623c.29.393.738.735.881.994-.453-.279-.375-.274-.393.032-.115-.75-.962-.936-1.232-1.7l.487-.335c-.486-1.088-1.481-1.47-2.266-2.767l.209.45c-.309-.021-.585-.726-.954-1.06.185-.082.06-.37.033-.61-.1.108-.652-.892-1.049-.765l-.2-.7c-.6-.978-1.407-.939-2.19-2.1.165.041.161-.112.19-.208s.1-.119.514.3c-.372-.5-.707-1.007-.737-.819a.874.874,0,0,0-.1-.175l-.07-.09c-.025-.026-.058.049-.089.073l-.422.52a2.768,2.768,0,0,1-.792.8c-.139.257-.094.5-.5.877-.07.013-.06-.077-.06-.077.018.122-.438.6-.011.5-1.29.385-2.413,2.338-3.552,2.638-.586.616-1.312,1.341-1.89,1.85,0-.077-.062-.076.061-.156-.924.553-.125.862-1.19,1.481-.68.15.384-.544.01-.39-.544-.393-1.062,1-1.941,1.212l.129-.153c-.617.219-1.029,1.137-1.865,1.716,0,0,0-.076-.055-.082a9.6,9.6,0,0,1-2.087,2.2c.1-.383.284-.366-.018-.469-.336.283.347.262-.327.829-.313.052-.9.317-1.125.134l.666-.484c-.545-.045-.866.617-1.261.809l-.042-.16c-1.009.751-.817,1.077-1.971,1.793l.181.024c-.42.729-.644.143-1.122.779l-.4-.22a19.168,19.168,0,0,1-2.007,1.7,12.381,12.381,0,0,1,1.558-1.614,5.536,5.536,0,0,0-1.524,1.147c.151-.13.314-.338.511-.382a4.717,4.717,0,0,1-1.839,1.548c-.071-.393-.912-.012-1.93.485l-.385.188-.2.1c-.063.033-.166.056-.082.122.157.224.307.446.44.658a3.073,3.073,0,0,1,.494,1.1l.641.728c.142.162.277.33.408.5.261.344.5.707.748,1.081.486.748.969,1.542,1.588,2.331.05-.927.365.459.78-.007.307.345.407.494.4.553l-.038-.092.038.1h0l.556,1.35c.059.375-.374-.275-.458-.158.576.847.05.5.326,1.138.092-.242.464.1.747.614l-.267-.826c1.118.949.331,1.3,1.453,2.257l-.427-.249c.534.524,1.633,2.186,2.461,2.471.022.147-.008.386-.239.152,1,1.459,2.778,2.835,3.359,4.116l-.2-.018c.232.238.569.291.7.712-.062.02-.2-.017-.115.111a3.367,3.367,0,0,1,.927.946l-.358-.2c.877,1.5,1.915,1.872,2.864,2.967-.354.261.345,1.432.694,2.017l-.064.018a38.81,38.81,0,0,0,3.59,3.894c.31,1.21,2.184,3.248,3.082,4.893-.106-.275.3-.169.535.069.19.4.966.78.6.967l-.087-.129c-.12.5.5,1.153.911,1.718l.492-.224c.481,1.923,3.1,3.661,3.144,4.872.37.273.7.712,1.064.982l-.241.151a25.91,25.91,0,0,0,1.971,2.7l-.347-.125c.5.692,1.3.371,1.783.99l-.2.443c.9,1.185,1.5,2.611,2.688,3.556-.064.018-.188.056-.346-.126.411.566,1.393,2.336,1.705,1.785-.292.24.89,1.249,1.5,1.791l-.3.067a3.091,3.091,0,0,1,1.428.985c.105.2-.061.291-.182.01.331.685.56.307.984,1.121l-.345-.163a1.494,1.494,0,0,0,.9.736c.379.32.818,1.209.684,1.451a1.116,1.116,0,0,1,.815.61c-.04.106-.186.009-.258-.04.619,1.142,1.4,1.335,1.716,2.206a.214.214,0,0,0-.044.219c-.607-.821-1.087-1.488-1.025-1.438-.206.154.253.841-.424.529a7.007,7.007,0,0,1,1.953,1.782.369.369,0,0,1-.007.138l-.073-.049a1.234,1.234,0,0,0,.338.382,4.063,4.063,0,0,0,.337.579c-.113.2.475.825.714,1.16.2-.2.491.262.375-.281.023.064-.074-.042-.247-.254a.9.9,0,0,0-.128-.123l.037.008-.628-.807a1.412,1.412,0,0,1,.757.831c.271.061.559.135.707.187.024.685.5,1.68.4,1.946.439.455.9,1.031,1.37,1.533a9,9,0,0,0,.714.693,2.618,2.618,0,0,0,.819.594.906.906,0,0,1,.258.445c.04.146.1.132.176.173a.959.959,0,0,1-.227.1l-.149-.163a.992.992,0,0,0-.255-.226c.2.132.332.617.718.311l.995-.4a3.342,3.342,0,0,0,.659-.333c.143-.1.235-.2.243-.3.905-.181-.357.507.788-.013l-.117.168c2.555-.384,3.3-2.41,6.017-3.067-.189.051-.282.078-.346.042,2.914-1.227,5.22-3.687,7.879-5.263.742-.48.644-.737.919-1.223l.343.1.435-.868c.737-1.071,2.123-1.035,2.891-2.568l-.294.015c.434-.4,1.141-1.46,1.257-1.23a.365.365,0,0,1,.2-.384l.132.09c.248-.42.476-.853.712-1.276.79-.791.389.545,1.424-.721C424.519,492.6,424.883,491.473,424.659,491.59Zm-5.373-7.077a.257.257,0,0,1,.009.085l-.2-.265c.062.058.123.112.19.18ZM395.03,504.681l.047.005a.347.347,0,0,1-.178,0c-.2-.195-.207-.3-.183-.366.082.1.18.216.314.363Z" transform="translate(-157.702 -135.7)"/>
    <path id="Path_73" data-name="Path 73" class="cls-4" d="M395.489,504.857a.752.752,0,0,1,.084.078,1.581,1.581,0,0,0-.047-.168l-.129-.025Z" transform="translate(-157.702 -135.7)"/>
    <path id="Path_74" data-name="Path 74" class="cls-4" d="M404.047,463.543a.217.217,0,0,1,.014.085.241.241,0,0,1,0-.052Z" transform="translate(-157.702 -135.7)"/>
    <path id="Path_75" data-name="Path 75" class="cls-4" d="M416.772,480.093c-.546-1.269-.028.367-.83-.776l.573.9C416.49,480,416.461,479.721,416.772,480.093Z" transform="translate(-157.702 -135.7)"/>
    <path id="Path_76" data-name="Path 76" class="cls-4" d="M414.276,476.467c-.3-.231-.369-.287-.189.112C414.471,477.007,414.209,476.48,414.276,476.467Z" transform="translate(-157.702 -135.7)"/>
    <path id="Path_77" data-name="Path 77" class="cls-4" d="M399.775,457.478l.239-.107C399.72,457.04,399.932,457.427,399.775,457.478Z" transform="translate(-157.702 -135.7)"/>
    <path id="Path_78" data-name="Path 78" class="cls-4" d="M238.265,315.8l-.516-.534.371.4Z"/>
    <path id="Path_79" data-name="Path 79" class="cls-4" d="M369.449,427.675l.31.143C369.939,427.576,369.745,427.273,369.449,427.675Z" transform="translate(-157.702 -135.7)"/>
    <path id="Path_80" data-name="Path 80" class="cls-4" d="M355.226,438.842a6.025,6.025,0,0,0,.874-.423A1.061,1.061,0,0,0,355.226,438.842Z" transform="translate(-157.702 -135.7)"/>
    <path id="Path_81" data-name="Path 81" class="cls-4" d="M217.624,343.108l.463.472-.17-.256Z"/>
    <path id="Path_82" data-name="Path 82" class="cls-6" d="M247.556,400.571l1.821,52.472,28.494,66.9s-7.433,34.688,7.433,33.449,1.239-34.688,1.239-34.688l-13.627-70.614-2.478-58.226Z" transform="translate(-157.702 -135.7)"/>
    <path id="Path_83" data-name="Path 83" class="cls-8" d="M100.347,228.146l.681-4.68,5.513,2.2,17.344,27.254L87.958,271.506Z"/>
  </g>
</svg>
